<svg id="enwjaisx5y21" xmlns="http://www.w3.org/2000/svg" xmlns:xlink="http://www.w3.org/1999/xlink" viewBox="0 0 251 250" shape-rendering="geometricPrecision" text-rendering="geometricPrecision"><style><![CDATA[#enwjaisx5y22_ts {animation: enwjaisx5y22_ts__ts 10000ms linear infinite normal forwards}@keyframes enwjaisx5y22_ts__ts { 0% {transform: translate(126.279528px,200.125061px) scale(0,0)} 7.400000% {transform: translate(126.279528px,200.125061px) scale(0,0)} 10.400000% {transform: translate(126.279528px,200.125061px) scale(1.100000,1.100000)} 11.400000% {transform: translate(126.279528px,200.125061px) scale(1,1)} 85% {transform: translate(126.279528px,200.125061px) scale(1,1)} 86% {transform: translate(126.279528px,200.125061px) scale(1.100000,1.100000)} 87% {transform: translate(126.279528px,200.125061px) scale(0,0)} 100% {transform: translate(126.279528px,200.125061px) scale(0,0)} }#enwjaisx5y219_ts {animation: enwjaisx5y219_ts__ts 10000ms linear infinite normal forwards}@keyframes enwjaisx5y219_ts__ts { 0% {transform: translate(126.452803px,54.470809px) scale(0,0)} 5.400000% {transform: translate(126.452803px,54.470809px) scale(0,0)} 8.400000% {transform: translate(126.452803px,54.470809px) scale(1.100000,1.100000)} 9.400000% {transform: translate(126.452803px,54.470809px) scale(1,1)} 86% {transform: translate(126.452803px,54.470809px) scale(1,1)} 87% {transform: translate(126.452803px,54.470809px) scale(1.100000,1.100000)} 88% {transform: translate(126.452803px,54.470809px) scale(0,0)} 100% {transform: translate(126.452803px,54.470809px) scale(0,0)} }#enwjaisx5y238_tr {animation: enwjaisx5y238_tr__tr 10000ms linear infinite normal forwards}@keyframes enwjaisx5y238_tr__tr { 0% {transform: translate(137.820686px,125.637146px) rotate(0deg)} 100% {transform: translate(137.820686px,125.637146px) rotate(10deg)} }#enwjaisx5y238_ts {animation: enwjaisx5y238_ts__ts 10000ms linear infinite normal forwards}@keyframes enwjaisx5y238_ts__ts { 0% {transform: scale(0,0)} 3% {transform: scale(1.100000,1.100000)} 4% {transform: scale(1,1)} 91% {transform: scale(1,1)} 92% {transform: scale(1.100000,1.100000)} 93% {transform: scale(0,0)} 100% {transform: scale(0,0)} }#enwjaisx5y240_tr {animation: enwjaisx5y240_tr__tr 10000ms linear infinite normal forwards}@keyframes enwjaisx5y240_tr__tr { 0% {transform: translate(19.762111px,128.413284px) rotate(0deg)} 100% {transform: translate(19.762111px,128.413284px) rotate(-9deg)} }#enwjaisx5y240_ts {animation: enwjaisx5y240_ts__ts 10000ms linear infinite normal forwards}@keyframes enwjaisx5y240_ts__ts { 0% {transform: scale(0,0)} 2% {transform: scale(0,0)} 4% {transform: scale(1.100000,1.100000)} 5% {transform: scale(1,1)} 90% {transform: scale(1,1)} 91% {transform: scale(1.100000,1.100000)} 92% {transform: scale(0,0)} 100% {transform: scale(0,0)} }#enwjaisx5y242_ts {animation: enwjaisx5y242_ts__ts 10000ms linear infinite normal forwards}@keyframes enwjaisx5y242_ts__ts { 0% {transform: translate(100.126564px,116.185329px) scale(0,0)} 3% {transform: translate(100.126564px,116.185329px) scale(0,0)} 6% {transform: translate(100.126564px,116.185329px) scale(1.100000,1.100000)} 7% {transform: translate(100.126564px,116.185329px) scale(1,1)} 89% {transform: translate(100.126564px,116.185329px) scale(1,1)} 90% {transform: translate(100.126564px,116.185329px) scale(1.100000,1.100000)} 91% {transform: translate(100.126564px,116.185329px) scale(0,0)} 100% {transform: translate(100.126564px,116.185329px) scale(0,0)} }#enwjaisx5y244_ts {animation: enwjaisx5y244_ts__ts 10000ms linear infinite normal forwards}@keyframes enwjaisx5y244_ts__ts { 0% {transform: translate(153.091026px,115.949997px) scale(0,0)} 4% {transform: translate(153.091026px,115.949997px) scale(0,0)} 7% {transform: translate(153.091026px,115.949997px) scale(1.100000,1.100000)} 8% {transform: translate(153.091026px,115.949997px) scale(1,1)} 88% {transform: translate(153.091026px,115.949997px) scale(1,1)} 89% {transform: translate(153.091026px,115.949997px) scale(1.100000,1.100000)} 90% {transform: translate(153.091026px,115.949997px) scale(0,0)} 100% {transform: translate(153.091026px,115.949997px) scale(0,0)} }#enwjaisx5y246_ts {animation: enwjaisx5y246_ts__ts 10000ms linear infinite normal forwards}@keyframes enwjaisx5y246_ts__ts { 0% {transform: translate(127.314262px,179.732765px) scale(0,0)} 5% {transform: translate(127.314262px,179.732765px) scale(0,0)} 8% {transform: translate(127.314262px,179.732765px) scale(1.100000,1.100000)} 9% {transform: translate(127.314262px,179.732765px) scale(1,1)} 87% {transform: translate(127.314262px,179.732765px) scale(1,1)} 88% {transform: translate(127.314262px,179.732765px) scale(1.100000,1.100000)} 89% {transform: translate(127.314262px,179.732765px) scale(0,0)} 100% {transform: translate(127.314262px,179.732765px) scale(0,0)} }]]></style><g id="enwjaisx5y22_ts" transform="translate(126.279528,200.125061) scale(0,0)"><g id="enwjaisx5y22" transform="translate(-126.279528,-200.125061)"><g id="enwjaisx5y23"><path id="enwjaisx5y24" d="M40,179.800000C38.700000,179.500000,37.700000,178.500000,36.800000,177.500000C35.100000,178.200000,33.300000,178.500000,31.700000,178.400000C27.900000,178,27.700000,175.900000,29.100000,174.700000C25.400000,177.100000,20.600000,180.100000,19.600000,180.100000C18.800000,180.100000,18.500000,179.300000,19.200000,178.700000L19.200000,178.700000C21.300000,176.400000,26.600000,173,29.100000,171.100000C30.700000,169.900000,35.800000,166.700000,37.500000,165.700000C39.600000,164.400000,40.600000,167.100000,38.900000,168.200000L37.300000,169.300000C39,168.800000,41.500000,168.500000,42.400000,170.200000C43.700000,172.700000,41,175.600000,37.600000,177.200000C38.400000,178,39.200000,178.800000,40.300000,179.300000C41.100000,179.600000,40.800000,180,40,179.800000ZM35,175.700000C34.400000,175.200000,33.700000,174.900000,33,174.700000C30.400000,174.200000,28.600000,176.500000,30.100000,176.800000C30.800000,176.900000,32,176.700000,32.700000,176.500000C33.300000,176.400000,34.100000,176.100000,35,175.700000ZM32.800000,173.800000C34.100000,174,35,174.600000,35.800000,175.400000C38.900000,173.900000,42.100000,171.500000,41,170.300000C40,169.300000,36,170.300000,34.200000,171.400000L34.200000,171.400000C32.800000,172.300000,31.400000,173.200000,30,174.200000C30.800000,173.800000,31.700000,173.600000,32.800000,173.800000Z" fill="rgb(223,29,17)" stroke="none" stroke-width="1"/><path id="enwjaisx5y25" d="M49.500000,191.400000C46.400000,193.100000,42,194.700000,40.300000,192.400000C39.200000,191,39.700000,189.400000,41.100000,188C39.700000,188.500000,38.600000,188.200000,37.900000,187.400000C34,182.900000,45.100000,174.300000,48.800000,178.600000C49.400000,179.300000,49.700000,180.200000,49.200000,181.300000C50.200000,181.100000,51.300000,181.900000,51.100000,183.400000C51,183.900000,50.700000,184.100000,50,184.800000C47.700000,186.900000,43.800000,190.100000,42,191.600000C40.600000,192.800000,44.100000,193.200000,49.300000,190.600000C50.300000,190.100000,50.500000,190.800000,49.500000,191.400000ZM42.400000,182.300000C35.500000,187.100000,39.200000,189.100000,44.500000,184.700000C50.900000,179.500000,49.400000,177.400000,42.400000,182.300000Z" fill="rgb(223,29,17)" stroke="none" stroke-width="1"/><path id="enwjaisx5y26" d="M49.900000,191C52.500000,189.200000,54.700000,186.500000,55.700000,184.700000C55.300000,183.900000,55.600000,183.300000,56.300000,182.400000C57.500000,180.800000,58.400000,182.500000,58.200000,183.700000C57.600000,186.700000,60,187.600000,61.200000,188.800000C63.900000,191.600000,52.400000,192.600000,48.500000,199.600000C45.900000,204.300000,55.100000,200.200000,57.900000,198.600000C58.900000,198,59.100000,198.900000,58.200000,199.400000C56,200.900000,48,205.600000,46.600000,200.800000C45,195.300000,56.200000,189.800000,58,188.800000C59,188.300000,57,186.200000,56.500000,185.500000C55.300000,187.500000,52.500000,190.400000,50.300000,191.800000C49.500000,192.300000,48.600000,191.900000,49.900000,191Z" fill="rgb(223,29,17)" stroke="none" stroke-width="1"/><path id="enwjaisx5y27" d="M70.100000,208.500000C67.400000,210.800000,63.500000,213.300000,61.300000,211.400000C59.900000,210.200000,60.100000,208.600000,61.100000,206.900000C59.800000,207.700000,58.700000,207.600000,57.900000,206.900000C53.100000,203.300000,62.200000,192.600000,66.700000,196C67.400000,196.600000,67.900000,197.400000,67.700000,198.500000C68.700000,198.100000,69.900000,198.700000,70,200.200000C70,200.700000,69.800000,200.900000,69.200000,201.800000C67.400000,204.400000,64.200000,208.300000,62.800000,210.100000C61.600000,211.600000,65.200000,211.300000,69.700000,207.600000C70.500000,207.100000,70.900000,207.800000,70.100000,208.500000ZM61.300000,201.100000C55.500000,207.300000,59.600000,208.400000,63.900000,203.100000C69,196.500000,67.100000,194.800000,61.300000,201.100000Z" fill="rgb(223,29,17)" stroke="none" stroke-width="1"/><path id="enwjaisx5y28" d="M95.400000,221.400000C93.400000,224.300000,90.100000,227.600000,87.500000,226.200000C85.900000,225.400000,85.700000,223.800000,86.300000,221.900000C85.200000,222.900000,84.100000,223.100000,83.200000,222.700000C77.700000,220.300000,84.100000,207.800000,89.200000,210.100000C90,210.500000,90.700000,211.200000,90.700000,212.300000C91.500000,211.700000,92.800000,212,93.300000,213.400000C93.400000,213.800000,93.300000,214.200000,92.900000,215.100000C91.800000,218,89.500000,222.600000,88.600000,224.700000C87.800000,226.400000,91.200000,225.300000,94.700000,220.700000C95.500000,219.900000,96.100000,220.500000,95.400000,221.400000ZM85.100000,216.200000C80.900000,223.500000,85.100000,223.700000,88,217.500000C91.600000,210,89.300000,208.800000,85.100000,216.200000Z" fill="rgb(223,29,17)" stroke="none" stroke-width="1"/><path id="enwjaisx5y29" d="M119.900000,227.700000C118.700000,230.200000,114.200000,238.200000,110.500000,234.700000C106.300000,230.800000,113.300000,220.300000,114.300000,218.600000C114.900000,217.600000,112.100000,216.800000,111.300000,216.500000C111.300000,218.800000,109.300000,225.200000,104.900000,225.100000C104.100000,226.700000,103,228.200000,101.700000,229.100000C98.600000,231.300000,97.100000,229.900000,97.300000,228.100000C96.100000,232.400000,94.600000,237.800000,93.800000,238.500000C93.200000,239,92.400000,238.600000,92.600000,237.700000L92.600000,237.700000C92.600000,234.600000,94.300000,228.500000,94.900000,225.500000C95.300000,223.500000,96.900000,217.800000,97.500000,215.900000C98.200000,213.600000,100.700000,214.900000,100.200000,216.900000L99.700000,218.800000C100.600000,217.300000,102.300000,215.400000,104.100000,216.100000C106.700000,217.100000,106.700000,221,105.200000,224.500000C108.700000,224.100000,110.300000,218.400000,110.200000,216.300000C109.400000,215.900000,109.400000,215.100000,109.500000,214C109.800000,212,111.400000,213,111.800000,214.200000C112.800000,217,115.300000,216.700000,117,217.100000C120.800000,218.100000,111.300000,224.800000,111.500000,232.800000C111.600000,238.200000,117.600000,230.100000,119.100000,227.200000C119.800000,226.100000,120.400000,226.700000,119.900000,227.700000ZM103.200000,216.900000C101.800000,216.800000,99.500000,220.200000,98.900000,222.300000L98.900000,222.300000C98.500000,223.900000,98.100000,225.500000,97.600000,227.200000C97.900000,226.400000,98.500000,225.600000,99.500000,225.100000C100.600000,224.400000,101.700000,224.300000,102.800000,224.300000C104,220.900000,104.900000,217,103.200000,216.900000ZM102.400000,225C101.600000,225.100000,100.900000,225.200000,100.200000,225.600000C98,227,98.200000,229.900000,99.400000,229.100000C100,228.700000,100.700000,227.700000,101.200000,227.100000C101.600000,226.500000,102,225.800000,102.400000,225Z" fill="rgb(223,29,17)" stroke="none" stroke-width="1"/><path id="enwjaisx5y210" d="M130.300000,227.700000C129.900000,229.300000,128.900000,231.400000,127.400000,232.700000C125.900000,234.100000,123.900000,234.300000,122.200000,232.900000C119.300000,230.500000,120.500000,220.900000,124.800000,220.500000C127.200000,220.300000,128,221.800000,128,223.100000C128,226.100000,124.400000,229.100000,123.100000,230C123.200000,230.500000,123.200000,230.900000,123.400000,231.300000C124.100000,233.400000,125.400000,232.900000,126.700000,231.900000C127.600000,231.100000,128.800000,229.600000,129.500000,227.200000C129.800000,226.300000,130.600000,226.600000,130.300000,227.700000ZM123.100000,229.300000C124.400000,228.200000,126.300000,226.300000,126.600000,223.600000C126.900000,221.800000,125.100000,219.800000,123.900000,223.700000C123.600000,224.900000,123.100000,227.200000,123.100000,229.300000Z" fill="rgb(223,29,17)" stroke="none" stroke-width="1"/><path id="enwjaisx5y211" d="M142.800000,227.200000C142.100000,231.900000,140.600000,233.400000,138.900000,233.400000C137.600000,233.500000,136.400000,232.100000,136.400000,229.300000C136.400000,226.400000,136.600000,217.200000,134,225.900000C133.700000,227,133.600000,228.300000,133.500000,229.300000C133.500000,231.200000,133.400000,232.700000,133.400000,232.700000C133.300000,235.100000,130.800000,235.700000,130.600000,233.100000C130.500000,232.200000,130.400000,229.800000,130.300000,228.100000C130.300000,227,130.200000,222.800000,130.200000,221.100000C130.200000,220,132,219.900000,133,220.900000C133.300000,221.200000,133.400000,222.800000,133.400000,224.800000C134,222.900000,134.900000,221,136.400000,221C137.800000,220.900000,138.900000,222.900000,139.100000,226.900000C139.200000,228.900000,138.700000,235.800000,141.100000,229.300000C141.300000,228.700000,141.500000,228,141.700000,226.900000C142.200000,225.700000,143,226,142.800000,227.200000Z" fill="rgb(223,29,17)" stroke="none" stroke-width="1"/><path id="enwjaisx5y212" d="M157.600000,224.700000C157.500000,228.200000,156.600000,232.700000,153.700000,233C151.900000,233.200000,150.800000,231.600000,150.200000,229.700000C149.900000,231.200000,149,231.900000,148,232.100000C142.100000,233.100000,140.500000,219.200000,146.100000,218.300000C147,218.100000,147.900000,218.400000,148.600000,219.300000C148.400000,218.200000,147.600000,211.700000,147.400000,210.900000C147,208.300000,149.900000,208.500000,150.400000,210.400000C150.600000,211.300000,151.700000,219.100000,151.900000,220.400000C152.400000,223.500000,153.300000,228.900000,153.700000,231.100000C154,233,156.200000,230.300000,156.600000,224.500000C156.800000,223.400000,157.600000,223.600000,157.600000,224.700000ZM146.100000,225.600000C146.600000,234,150.200000,231.800000,149.300000,225.100000C148,216.800000,145.500000,217.100000,146.100000,225.600000Z" fill="rgb(223,29,17)" stroke="none" stroke-width="1"/><path id="enwjaisx5y213" d="M167.100000,221.800000C167.300000,223.400000,167,225.800000,166.100000,227.500000C165.100000,229.300000,163.400000,230.200000,161.300000,229.500000C157.800000,228.300000,155.600000,218.700000,159.600000,217C161.800000,216,163.100000,217.100000,163.500000,218.400000C164.500000,221.200000,162.200000,225.300000,161.300000,226.600000C161.500000,227,161.700000,227.400000,162,227.800000C163.400000,229.500000,164.500000,228.600000,165.300000,227.200000C165.900000,226.200000,166.500000,224.300000,166.300000,221.800000C166.100000,220.600000,167,220.600000,167.100000,221.800000ZM160.900000,225.700000C161.800000,224.200000,162.800000,221.800000,162.300000,219.100000C161.900000,217.300000,159.600000,216.100000,159.800000,220.200000C159.900000,221.500000,160.200000,223.800000,160.900000,225.700000Z" fill="rgb(223,29,17)" stroke="none" stroke-width="1"/><path id="enwjaisx5y214" d="M167,221.300000C166.500000,218.200000,164.900000,215.100000,163.700000,213.400000C162.800000,213.500000,162.300000,212.900000,161.800000,211.900000C160.900000,210.100000,162.800000,210,163.800000,210.700000C166.300000,212.400000,168,210.700000,169.700000,210C173.400000,208.600000,169.500000,219.600000,174.400000,226C177.600000,230.300000,177.700000,220.200000,177.300000,217C177.200000,215.900000,178,216.100000,178.200000,217.100000C178.700000,219.800000,179.700000,229,174.700000,228.300000C169,227.500000,168.600000,215,168.400000,213C168.300000,211.900000,165.600000,212.900000,164.800000,213C166.200000,214.900000,167.600000,218.600000,168,221.200000C168,222.300000,167.200000,222.900000,167,221.300000Z" fill="rgb(223,29,17)" stroke="none" stroke-width="1"/><path id="enwjaisx5y215" d="M202.100000,200.700000C203.700000,203.800000,205.200000,208.300000,202.800000,209.900000C201.300000,210.900000,199.800000,210.400000,198.400000,209C198.800000,210.400000,198.500000,211.500000,197.700000,212.200000C193,215.900000,184.900000,204.600000,189.300000,201C190,200.400000,191,200.200000,192,200.700000C191.800000,199.700000,192.700000,198.700000,194.200000,198.900000C194.600000,199,194.900000,199.300000,195.500000,200.100000C197.600000,202.500000,200.600000,206.500000,202,208.300000C203.200000,209.800000,203.700000,206.300000,201.300000,201C200.800000,200,201.600000,199.800000,202.100000,200.700000ZM192.800000,207.500000C197.400000,214.600000,199.400000,210.900000,195.300000,205.500000C190.200000,198.900000,188.100000,200.400000,192.800000,207.500000Z" fill="rgb(223,29,17)" stroke="none" stroke-width="1"/><path id="enwjaisx5y216" d="M217.200000,179.100000C216.600000,180.200000,215.900000,182.600000,215.700000,185.600000C217.700000,186.200000,220.500000,186.700000,222.100000,187C226.400000,187.900000,229.200000,192.500000,226.200000,196.800000C223.900000,200.100000,216.500000,200.600000,215.100000,192.700000C214.900000,191.300000,214.700000,189.900000,214.700000,188.500000C212.900000,188.300000,211.500000,188.100000,210.300000,187.600000C211,188.400000,211.700000,189.100000,211.900000,189.400000C212.800000,190.400000,212.100000,191,211.100000,189.800000C210.200000,188.600000,208.300000,186.700000,207.300000,185.400000C206.700000,184.700000,206.700000,184,206.900000,183.100000C207.200000,181.800000,209,180.200000,209.100000,181.200000C209.500000,183.100000,212,184.300000,213.800000,185C214.100000,185.100000,214.400000,185.200000,214.800000,185.300000C215.100000,182.100000,215.800000,179.500000,216.500000,178.500000C217.100000,177.800000,217.700000,178.200000,217.200000,179.100000ZM215.600000,188.500000C215.600000,189.800000,215.800000,191.200000,216,192.600000C217.400000,200,226.800000,199.300000,225.800000,193.500000C225.400000,191.400000,223.400000,189.400000,220.400000,189.100000C218.600000,188.800000,217.100000,188.700000,215.600000,188.500000Z" fill="rgb(223,29,17)" stroke="none" stroke-width="1"/><path id="enwjaisx5y217" d="M222.500000,172.600000C223.800000,173.700000,225.200000,175.500000,225.700000,177.400000C226.300000,179.400000,225.700000,181.200000,223.700000,182.200000C220.300000,183.800000,212.100000,178.500000,213.700000,174.400000C214.600000,172.200000,216.200000,172,217.500000,172.600000C220.200000,173.900000,221.400000,178.400000,221.600000,180C222.100000,180.200000,222.500000,180.300000,222.900000,180.300000C225.100000,180.600000,225.200000,179.100000,224.800000,177.600000C224.500000,176.500000,223.600000,174.700000,221.700000,173C221.100000,172.500000,221.700000,171.900000,222.500000,172.600000ZM220.900000,179.800000C220.500000,178.100000,219.600000,175.700000,217.300000,174.100000C215.800000,173.100000,213.200000,173.800000,216.300000,176.600000C217.200000,177.500000,219,178.900000,220.900000,179.800000Z" fill="rgb(223,29,17)" stroke="none" stroke-width="1"/><path id="enwjaisx5y218" d="M222.100000,172.500000C219.500000,170.600000,216.300000,169.500000,214.200000,169.100000C213.600000,169.800000,212.900000,169.700000,211.800000,169.400000C209.900000,168.800000,211.200000,167.400000,212.400000,167.200000C215.400000,166.700000,215.400000,164.200000,216.200000,162.600000C217.900000,159.100000,222.700000,169.600000,230.700000,170.900000C236.100000,171.800000,229.100000,164.500000,226.600000,162.400000C225.700000,161.700000,226.500000,161.200000,227.300000,161.800000C229.500000,163.400000,236.600000,169.300000,232.500000,172.300000C227.900000,175.700000,218.900000,166.900000,217.300000,165.700000C216.500000,165,215.200000,167.600000,214.700000,168.300000C217,168.700000,220.600000,170.400000,222.700000,172C223.500000,172.400000,223.400000,173.400000,222.100000,172.500000Z" fill="rgb(223,29,17)" stroke="none" stroke-width="1"/></g></g></g><g id="enwjaisx5y219_ts" transform="translate(126.452803,54.470809) scale(0,0)"><g id="enwjaisx5y219" transform="translate(-126.452803,-54.470809)"><g id="enwjaisx5y220"><path id="enwjaisx5y221" d="M38.100000,83.600000C42,85.700000,42.900000,88.500000,42.200000,90.800000C41.100000,94,37.400000,95.700000,33.100000,94.200000C31,93.500000,28.800000,91.500000,28.300000,89.300000L28.200000,88.800000C27.900000,89,27.600000,89.100000,27.300000,89.300000C23.200000,91.400000,18.300000,88.800000,17.500000,85C16.900000,82.300000,19.100000,79.800000,20.300000,79.600000C21.400000,79.400000,21.600000,80.400000,20.900000,80.700000C20.200000,81,19.600000,81.500000,19.300000,82.200000C18.300000,85.100000,24.200000,88.500000,27.500000,87.300000C27.700000,87.200000,27.900000,87.200000,28,87.100000C28.100000,84.800000,29.200000,83.100000,30.500000,83.600000C31.300000,83.900000,31.900000,85.800000,29.500000,87.800000C30.500000,89.700000,32,90.800000,33.700000,91.300000C40.200000,93.500000,44.100000,88.300000,37.400000,84.200000C36.700000,83.700000,37.100000,83,38.100000,83.600000ZM29.300000,86.300000C30.400000,85.400000,30.700000,84.500000,30.300000,84.300000C29.800000,84.100000,29.300000,85.200000,29.300000,86.300000Z" fill="rgb(223,29,17)" stroke="none" stroke-width="1"/><path id="enwjaisx5y222" d="M43.200000,72.900000C47,75.700000,47.600000,77.700000,47,79.200000C46.500000,80.400000,44.700000,80.800000,42.200000,79.500000C39.600000,78.100000,31.600000,73.800000,38.100000,80C38.900000,80.800000,40,81.500000,40.900000,82C42.600000,82.900000,43.800000,83.600000,43.900000,83.600000C46,84.800000,45.400000,87.300000,43,86.300000C42.100000,85.900000,39.900000,85,38.400000,84.300000C37.400000,83.800000,33.600000,82,32.100000,81.100000C31.200000,80.600000,31.800000,79,33.300000,78.500000C33.700000,78.400000,35.200000,79.100000,37,79.900000C35.600000,78.500000,34.400000,76.800000,35,75.500000C35.600000,74.200000,37.900000,74.100000,41.500000,75.800000C43.300000,76.600000,49.200000,80.200000,44.500000,75.100000C44.100000,74.600000,43.500000,74.100000,42.600000,73.400000C41.600000,72.800000,42.200000,72.300000,43.200000,72.900000Z" fill="rgb(223,29,17)" stroke="none" stroke-width="1"/><path id="enwjaisx5y223" d="M36.600000,59.600000C35.400000,61.600000,35.400000,61.700000,34.200000,63.700000L34,64.200000C36.100000,65.500000,38.600000,67.100000,39.300000,67.500000C42,69.100000,46.700000,71.900000,48.700000,73C50.300000,73.900000,50.500000,71.400000,46.300000,67.300000C45.500000,66.600000,46.200000,66.100000,47,66.800000C49.700000,69.100000,51.700000,71.900000,50.100000,74.300000C49.100000,75.800000,47.100000,75.800000,44.900000,74.600000C41.800000,72.800000,35.900000,69.100000,32.500000,66.900000C31.500000,68.600000,30.400000,70.500000,29.900000,71.100000C29.500000,71.600000,28.400000,71.400000,28.700000,70.800000C29.800000,68.800000,30.600000,67.400000,31.300000,66.200000L29.700000,65.200000C27.400000,63.900000,29.500000,61.700000,31.300000,62.500000C31.500000,62.600000,32.100000,63,32.900000,63.400000C33.600000,62.200000,34.400000,60.800000,35.600000,58.800000C36.200000,57.800000,37.100000,58.700000,36.600000,59.600000Z" fill="rgb(223,29,17)" stroke="none" stroke-width="1"/><path id="enwjaisx5y224" d="M46.100000,67.200000C44,64.800000,41,63.100000,39.100000,62.300000C38.400000,62.900000,37.700000,62.600000,36.700000,62.100000C34.900000,61.100000,36.500000,60,37.700000,60C40.700000,60.100000,41.300000,57.700000,42.400000,56.300000C44.800000,53.200000,47.400000,64.500000,54.900000,67.300000C60,69.200000,54.600000,60.700000,52.600000,58.200000C51.900000,57.300000,52.700000,57,53.400000,57.800000C55.200000,59.800000,61,67,56.400000,69.100000C51.200000,71.500000,44.100000,61.100000,42.900000,59.500000C42.200000,58.600000,40.400000,60.900000,39.800000,61.500000C42,62.400000,45.200000,64.800000,46.900000,66.700000C47.500000,67.400000,47.200000,68.400000,46.100000,67.200000Z" fill="rgb(223,29,17)" stroke="none" stroke-width="1"/><path id="enwjaisx5y225" d="M59.500000,51C60.500000,52.300000,61.600000,54.400000,61.700000,56.400000C61.800000,58.500000,60.900000,60.200000,58.700000,60.700000C55.100000,61.600000,48.100000,54.700000,50.500000,51.100000C51.800000,49.100000,53.500000,49.300000,54.600000,50.100000C57,51.900000,57.200000,56.600000,57.100000,58.200000C57.500000,58.400000,57.900000,58.700000,58.300000,58.800000C60.400000,59.500000,60.800000,58.100000,60.700000,56.500000C60.600000,55.300000,60.100000,53.400000,58.600000,51.400000C58.100000,50.500000,58.800000,50.100000,59.500000,51ZM56.400000,57.600000C56.300000,55.800000,55.900000,53.300000,54,51.300000C52.700000,50,50.100000,50.200000,52.500000,53.500000C53.200000,54.600000,54.800000,56.400000,56.400000,57.600000Z" fill="rgb(223,29,17)" stroke="none" stroke-width="1"/><path id="enwjaisx5y226" d="M68.400000,27.100000C66.500000,28.500000,66.500000,28.500000,64.600000,29.900000L64.100000,30.300000C65.500000,32.300000,67.200000,34.800000,67.700000,35.400000C69.600000,37.900000,72.800000,42.300000,74.200000,44.200000C75.300000,45.700000,76.500000,43.400000,74.200000,38C73.800000,37,74.600000,36.800000,75.100000,37.800000C76.600000,41,77.500000,44.300000,75,45.900000C73.500000,46.900000,71.600000,46.100000,70.100000,44.100000C67.900000,41.200000,64,35.500000,61.600000,32.200000C60,33.400000,58.200000,34.700000,57.600000,35.100000C57,35.400000,56.100000,34.800000,56.700000,34.400000C58.500000,33,59.800000,32,60.900000,31.200000L59.800000,29.700000C58.200000,27.600000,61,26.400000,62.300000,27.900000C62.500000,28.100000,62.900000,28.600000,63.400000,29.400000C64.500000,28.500000,65.800000,27.600000,67.600000,26.200000C68.700000,25.300000,69.200000,26.500000,68.400000,27.100000Z" fill="rgb(223,29,17)" stroke="none" stroke-width="1"/><path id="enwjaisx5y227" d="M84.700000,29.500000C84.200000,30.300000,83.400000,31.200000,82.400000,32C82.700000,32.600000,82.900000,33.300000,83.200000,34C84.200000,36.800000,84,39.800000,81.600000,41C77.100000,43.400000,74.200000,39,72.100000,33.500000C71.700000,32.600000,72.100000,31.900000,72.600000,31.600000C71.500000,29.800000,71.700000,27.500000,73.400000,26.500000C75.500000,25.200000,79.300000,26,82,31.200000C83,30.500000,83.600000,29.600000,83.900000,29.200000C84.600000,27.800000,85,28.900000,84.700000,29.500000ZM79.900000,32.300000C80.100000,32.200000,80.200000,32.200000,80.400000,32.100000C79,29.300000,77.200000,27.800000,75.700000,27.400000C71.500000,26.400000,72.900000,35.100000,79.900000,32.300000ZM81.500000,34.500000C81.300000,33.900000,81.100000,33.400000,80.900000,32.900000C80.800000,33,80.600000,33,80.500000,33.100000C78.200000,34,76.300000,34,74.900000,33.400000C76.300000,36.300000,77.800000,38.700000,79.300000,39.700000C80.300000,40.400000,83.700000,41.200000,81.500000,34.500000Z" fill="rgb(223,29,17)" stroke="none" stroke-width="1"/><path id="enwjaisx5y228" d="M99,25.600000C99.800000,29.100000,99.900000,33.600000,97.200000,34.600000C95.500000,35.200000,94,33.900000,93,32.200000C93.100000,33.700000,92.400000,34.600000,91.500000,35C86,37.400000,81.100000,24.300000,86.300000,22C87.100000,21.600000,88.100000,21.700000,89,22.400000C88.600000,21.400000,86.200000,15.300000,85.900000,14.600000C84.900000,12.200000,87.800000,11.600000,88.700000,13.400000C89.200000,14.200000,92.100000,21.600000,92.600000,22.700000C93.900000,25.600000,96,30.600000,96.900000,32.700000C97.700000,34.400000,99.100000,31.300000,98.100000,25.600000C97.900000,24.500000,98.800000,24.500000,99,25.600000ZM88,29.200000C90.600000,37.300000,93.500000,34.200000,90.900000,27.900000C87.800000,20.200000,85.400000,21.100000,88,29.200000Z" fill="rgb(223,29,17)" stroke="none" stroke-width="1"/><path id="enwjaisx5y229" d="M122.100000,18.200000C121,18.600000,118.900000,19.900000,116.600000,22.100000C117.800000,23.900000,119.400000,26.100000,120.400000,27.500000C123,31,122,36.400000,117,37.600000C113.100000,38.500000,107.200000,33.900000,111.500000,27.100000C112.300000,25.900000,113.100000,24.700000,114.100000,23.700000C112.900000,22.400000,112.100000,21.600000,111.300000,20.100000C110.900000,20.800000,109.800000,21.400000,108.900000,21.800000C108.600000,21.900000,108.300000,22,108,22.200000C108.100000,22.900000,108.100000,23.600000,108.100000,24.300000C108.100000,27.300000,107.100000,30,104.400000,30.500000C99.300000,31.400000,98,26.300000,97.700000,20.400000C97.600000,19.400000,98.200000,18.900000,98.800000,18.700000C98.300000,16.700000,99.200000,14.500000,101.200000,14.100000C103.600000,13.500000,107,15.500000,107.900000,21.200000C108.200000,21.100000,108.400000,21,108.600000,20.900000C108.900000,20.700000,109.200000,20.600000,109.500000,20.500000C111,19.600000,110.800000,18.500000,110.600000,16.600000C110.500000,15.700000,111.100000,15.200000,111.800000,14.600000C112.900000,13.800000,115.200000,13.800000,114.700000,14.700000C113.800000,16.400000,114.800000,18.900000,115.700000,20.700000C115.800000,21,116,21.300000,116.200000,21.600000C118.600000,19.400000,120.900000,17.900000,122,17.600000C122.900000,17.100000,123,17.800000,122.100000,18.200000ZM103.100000,15.600000C99.300000,13.200000,98,22,105.500000,21.500000C105.700000,21.500000,105.900000,21.500000,106,21.500000C105.600000,18.400000,104.400000,16.400000,103.100000,15.600000ZM106.200000,22.400000C106,22.400000,105.900000,22.500000,105.700000,22.500000C103.200000,22.700000,101.400000,22,100.300000,21C100.800000,24.200000,101.400000,26.900000,102.500000,28.300000C103.300000,29.300000,106.300000,31.100000,106.300000,24.100000C106.300000,23.500000,106.300000,22.900000,106.200000,22.400000ZM117.800000,27.800000C116.600000,26.400000,115.500000,25.300000,114.600000,24.200000C113.800000,25.200000,112.900000,26.300000,112.200000,27.600000C108.300000,34,115.800000,39.800000,118.900000,34.700000C120.100000,32.900000,119.800000,30,117.800000,27.800000Z" fill="rgb(223,29,17)" stroke="none" stroke-width="1"/><path id="enwjaisx5y230" d="M146.500000,21C145.900000,23.400000,144.100000,25.600000,142,27.600000C141.400000,31.900000,140.400000,35.400000,139.300000,37.400000C136.800000,41.700000,131.600000,39.700000,133.300000,35.500000C134.200000,33.100000,136.500000,31,138.900000,29C139,27,139.300000,24.400000,139.500000,21.900000C138.700000,24,137.500000,26.500000,135.700000,26.400000C134.300000,26.300000,133.400000,24.200000,133.700000,20.300000C133.800000,18.200000,134.100000,15.200000,134.300000,14C134.600000,12.300000,137.100000,13.100000,137,14.500000C136.900000,16.900000,134.500000,31.900000,138.700000,21.900000C139.400000,20.100000,139.700000,17.200000,140,15.400000L140,15.100000C140.100000,14.100000,141.900000,14.100000,142.800000,15.300000C143.100000,15.700000,143,16,143,17.100000C142.900000,20,142.400000,23.700000,142.100000,26.200000C143.800000,24.600000,145.100000,22.800000,145.700000,20.900000C146,19.600000,146.800000,19.800000,146.500000,21ZM138.800000,30.600000C136.700000,32.600000,134.900000,34.500000,134.800000,36.300000C134.500000,39.100000,137.900000,40.200000,138.800000,30.600000Z" fill="rgb(223,29,17)" stroke="none" stroke-width="1"/><path id="enwjaisx5y231" d="M165.800000,21.700000C166.300000,21.400000,166.500000,21.200000,166.600000,20.900000C167.600000,19.100000,165.400000,16.500000,163.100000,20.300000C162.100000,21.900000,160.300000,25.700000,160.500000,28.200000C160.700000,30.600000,162.200000,30.400000,163.800000,29.600000C165.100000,29,166.600000,27.500000,167.600000,25.800000C168.100000,25,168.800000,25.400000,168.200000,26.400000C167.400000,28,165.800000,29.700000,164.300000,30.500000C162.300000,31.500000,160.200000,31.300000,158.800000,29.400000C156.400000,26.200000,160.200000,16.300000,164.800000,17.100000C168.300000,17.700000,168.500000,20.900000,166.700000,22.100000C165.800000,22.900000,165.100000,22.200000,165.800000,21.700000Z" fill="rgb(223,29,17)" stroke="none" stroke-width="1"/><path id="enwjaisx5y232" d="M180.800000,29.800000C179.800000,29.900000,178.600000,29.700000,177.500000,29.300000C177.200000,29.900000,176.800000,30.500000,176.300000,31.100000C174.500000,33.500000,172,35,169.600000,33.800000C165,31.500000,167,26.600000,170.300000,21.700000C170.800000,20.900000,171.600000,20.800000,172.200000,21C173,19.100000,175,17.900000,176.900000,18.700000C179.100000,19.700000,180.700000,23.300000,178,28.400000C179.200000,28.800000,180.200000,28.900000,180.800000,28.800000C182.100000,28.800000,181.500000,29.800000,180.800000,29.800000ZM174.800000,30.100000C175.200000,29.600000,175.500000,29.100000,175.800000,28.700000C175.600000,28.600000,175.500000,28.500000,175.400000,28.500000C173.300000,27.100000,172.300000,25.600000,172,24.100000C170.400000,26.900000,169.300000,29.500000,169.300000,31.300000C169.300000,32.400000,170.600000,35.700000,174.800000,30.100000ZM175.800000,27.500000C176,27.600000,176.100000,27.700000,176.300000,27.800000C177.800000,25,178,22.700000,177.500000,21.300000C175.800000,17.200000,169.500000,23.400000,175.800000,27.500000Z" fill="rgb(223,29,17)" stroke="none" stroke-width="1"/><path id="enwjaisx5y233" d="M190.200000,38C187,41.500000,184.900000,41.900000,183.600000,41.100000C182.500000,40.400000,182.200000,38.600000,183.800000,36.300000C185.400000,33.900000,190.600000,26.300000,183.700000,32.200000C182.800000,33,182,34,181.400000,34.800000C180.300000,36.400000,179.500000,37.600000,179.500000,37.600000C178.100000,39.500000,175.700000,38.700000,176.900000,36.400000C177.300000,35.600000,178.500000,33.500000,179.400000,32C180,31,182.200000,27.500000,183.200000,26.100000C183.800000,25.200000,185.300000,26.100000,185.700000,27.500000C185.800000,27.900000,185,29.300000,183.900000,31C185.400000,29.800000,187.200000,28.700000,188.500000,29.500000C189.700000,30.200000,189.500000,32.500000,187.500000,35.900000C186.500000,37.600000,182.300000,43.100000,187.800000,39C188.300000,38.600000,188.900000,38.100000,189.700000,37.300000C190.400000,36.500000,190.900000,37.200000,190.200000,38Z" fill="rgb(223,29,17)" stroke="none" stroke-width="1"/><path id="enwjaisx5y234" d="M215.100000,43C213.400000,41.400000,213.400000,41.400000,211.700000,39.700000L211.300000,39.300000C209.600000,41,207.400000,43.100000,206.900000,43.700000C204.800000,46,200.900000,49.900000,199.300000,51.600000C198,53,200.500000,53.700000,205.400000,50.600000C206.300000,50,206.600000,50.800000,205.700000,51.400000C202.800000,53.400000,199.700000,54.800000,197.700000,52.600000C196.500000,51.300000,196.900000,49.300000,198.600000,47.500000C201.100000,44.900000,206.100000,40,209,37.200000C207.600000,35.800000,206,34.300000,205.500000,33.700000C205.100000,33.200000,205.600000,32.200000,206.100000,32.700000C207.800000,34.200000,209,35.300000,210,36.300000L211.300000,35C213.100000,33.100000,214.800000,35.600000,213.500000,37.200000C213.300000,37.400000,212.900000,37.900000,212.200000,38.600000C213.200000,39.600000,214.400000,40.700000,216,42.300000C217,43,215.900000,43.700000,215.100000,43Z" fill="rgb(223,29,17)" stroke="none" stroke-width="1"/><path id="enwjaisx5y235" d="M215.500000,59.500000C214.600000,59.200000,213.600000,58.500000,212.700000,57.700000C212.100000,58.100000,211.600000,58.400000,210.900000,58.800000C208.300000,60.200000,205.300000,60.500000,203.700000,58.400000C200.500000,54.300000,204.500000,50.800000,209.500000,47.800000C210.300000,47.300000,211.100000,47.500000,211.500000,48C213.100000,46.600000,215.400000,46.400000,216.700000,48C218.300000,49.900000,218.200000,53.700000,213.500000,57.200000C214.400000,58,215.300000,58.600000,215.800000,58.800000C217.100000,59.100000,216.100000,59.700000,215.500000,59.500000ZM210,57.100000C210.500000,56.800000,211,56.500000,211.500000,56.200000C211.400000,56.100000,211.300000,55.900000,211.200000,55.800000C209.900000,53.700000,209.600000,51.800000,210,50.300000C207.400000,52.200000,205.200000,54,204.500000,55.700000C204,56.900000,203.800000,60.400000,210,57.100000ZM212,55.200000C212.100000,55.400000,212.200000,55.500000,212.300000,55.700000C214.800000,53.900000,216,51.800000,216.100000,50.300000C216.400000,45.900000,208,48.800000,212,55.200000Z" fill="rgb(223,29,17)" stroke="none" stroke-width="1"/><path id="enwjaisx5y236" d="M221.700000,72.900000C218.400000,74.200000,213.900000,75.100000,212.600000,72.600000C211.700000,71,212.700000,69.300000,214.300000,68.100000C212.800000,68.400000,211.800000,67.900000,211.200000,67.100000C207.900000,62.100000,220,55.100000,223.100000,59.800000C223.600000,60.600000,223.700000,61.500000,223.200000,62.500000C224.100000,61.900000,229.800000,58.500000,230.400000,58.100000C232.600000,56.700000,233.600000,59.500000,232.100000,60.700000C231.400000,61.300000,224.600000,65.400000,223.500000,66.100000C220.900000,67.800000,216.300000,70.700000,214.300000,72C212.700000,73,216,74,221.500000,72C222.600000,71.700000,222.800000,72.500000,221.700000,72.900000ZM216.300000,62.700000C208.800000,66.500000,212.300000,69,218.100000,65.400000C225.100000,61,223.900000,58.800000,216.300000,62.700000Z" fill="rgb(223,29,17)" stroke="none" stroke-width="1"/><path id="enwjaisx5y237" d="M232.800000,94.500000C232.200000,93.400000,230.500000,91.600000,228.100000,89.700000C226.500000,91.100000,224.600000,93.100000,223.400000,94.400000C220.400000,97.600000,214.900000,97.500000,212.900000,92.700000C211.300000,89,214.900000,82.400000,222.300000,85.500000C223.600000,86.100000,224.900000,86.700000,226.100000,87.500000C227.200000,86.100000,227.900000,85.100000,229.200000,84.200000C228.400000,83.900000,227.700000,82.900000,227.200000,82.100000C227,81.800000,226.900000,81.600000,226.700000,81.300000C226.100000,81.500000,225.400000,81.600000,224.600000,81.800000C221.600000,82.300000,218.800000,81.700000,217.900000,79.200000C216.200000,74.300000,221,72.200000,226.700000,70.900000C227.600000,70.700000,228.300000,71.100000,228.500000,71.700000C230.400000,70.900000,232.700000,71.400000,233.400000,73.300000C234.300000,75.600000,233,79.200000,227.500000,81.100000C227.600000,81.300000,227.800000,81.600000,227.900000,81.800000C228.100000,82.100000,228.300000,82.400000,228.500000,82.600000C229.700000,83.900000,230.600000,83.500000,232.500000,83C233.300000,82.800000,234,83.200000,234.600000,83.900000C235.500000,84.800000,235.900000,87.100000,235,86.800000C233.200000,86.100000,230.800000,87.600000,229.300000,88.800000C229,89,228.800000,89.200000,228.500000,89.500000C231.100000,91.500000,232.900000,93.500000,233.400000,94.500000C234,95.100000,233.300000,95.400000,232.800000,94.500000ZM222.700000,91.900000C223.800000,90.500000,224.800000,89.300000,225.700000,88.100000C224.600000,87.400000,223.300000,86.800000,222,86.300000C215,83.500000,210.600000,91.900000,216.100000,94.100000C218,94.900000,220.800000,94.200000,222.700000,91.900000ZM226,79.500000C225.900000,79.300000,225.900000,79.200000,225.900000,79C225.300000,76.600000,225.700000,74.700000,226.500000,73.400000C223.400000,74.400000,220.800000,75.500000,219.600000,76.800000C218.700000,77.800000,217.500000,81,224.400000,79.800000C225,79.800000,225.500000,79.700000,226,79.500000ZM232.300000,75.400000C234,71.300000,225.100000,71.400000,226.900000,78.800000C226.900000,79,227,79.200000,227,79.300000C229.900000,78.300000,231.700000,76.800000,232.300000,75.400000Z" fill="rgb(223,29,17)" stroke="none" stroke-width="1"/></g></g></g><g id="enwjaisx5y238_tr" transform="translate(137.820686,125.637146) rotate(0)"><g id="enwjaisx5y238_ts" transform="scale(0,0)"><g id="enwjaisx5y238" transform="translate(-137.820686,-125.637146)"><path id="enwjaisx5y239" d="M56.700000,84.400000C64.100000,75.200000,71.600000,66,79,56.800000C81.200000,55.400000,83.300000,53.800000,85.700000,52.800000C94.200000,49.400000,102.700000,40.400000,111.500000,43C148.200000,53.800000,143.900000,39.200000,159.100000,47.400000C164.600000,50.400000,170.100000,53.600000,175.600000,56.700000C179,59.500000,182.300000,60.900000,185.700000,63.700000C189.600000,64.300000,190.600000,68.700000,191,69.100000C197.400000,75.800000,200.700000,82.500000,203.400000,90C203.900000,91.500000,204.500000,93,205,94.600000C205.500000,98.400000,205.500000,101.600000,207.100000,104.900000C208.300000,106.100000,209.500000,107.300000,210.500000,108.600000C210.900000,110.200000,211.700000,111.400000,212.900000,112.400000C220.100000,116.300000,229.800000,116.300000,233.100000,121.200000C244.500000,131,221.700000,131,215.100000,137.300000C213.700000,138.200000,212.500000,139.200000,211.300000,140.200000C207.800000,143.300000,204.800000,146.900000,203.400000,151.600000C202.900000,153,202.400000,154.400000,202.100000,156C201.300000,157,200.400000,158.100000,199.600000,159.100000C195.400000,164.300000,191.200000,169.500000,186.300000,173.900000C178,181.400000,169.400000,188.600000,158.400000,192.300000C156.400000,193,155.400000,196.100000,153.800000,198C151.200000,201.100000,149,205,145.700000,206.800000C142.400000,208.600000,137.900000,208.300000,133.900000,208.600000C120.600000,209.700000,109.100000,204.100000,97.700000,198.200000C88.600000,193.500000,79.400000,188.700000,70.200000,184C69.400000,183.400000,68.600000,182.700000,67.800000,182.100000C65.300000,177,61.700000,172.200000,60.500000,166.900000C58.300000,157.300000,54.200000,150.600000,43.300000,150.200000C42,150.200000,40.700000,148.600000,39.400000,147.700000C40.500000,146.200000,41.400000,143.900000,42.900000,143.200000C45.400000,142.100000,48.300000,142.100000,52.200000,141.500000C51.200000,138,51,134,49.100000,131.200000C45.500000,125.900000,46,121.300000,49.300000,116.400000C50,115.300000,50.400000,114,50.600000,112.700000C52.700000,103.200000,54.700000,93.800000,56.700000,84.400000Z" fill="rgb(28,100,88)" stroke="none" stroke-width="1"/></g></g></g><g id="enwjaisx5y240_tr" transform="translate(19.762111,128.413284) rotate(0)"><g id="enwjaisx5y240_ts" transform="scale(0,0)"><g id="enwjaisx5y240" transform="translate(-19.762111,-128.413284)"><path id="enwjaisx5y241" d="M28.600000,128C27.800000,133.400000,26.200000,136.600000,22.900000,138.300000C19.600000,138.300000,13.100000,139.900000,11.500000,135C9.900000,128.500000,11.500000,122,18,118.700000C22.900000,117.100000,24.500000,120.300000,27.800000,123.900000C28.300000,125.200000,28.600000,126.500000,28.600000,128Z" fill="rgb(28,100,88)" stroke="none" stroke-width="1"/></g></g></g><g id="enwjaisx5y242_ts" transform="translate(100.126564,116.185329) scale(0,0)"><g id="enwjaisx5y242" transform="translate(-100.126564,-116.185329)"><path id="enwjaisx5y243" d="M121.200000,92.300000C121,83.900000,117,76,110.900000,71.600000C106,68,99.800000,67.700000,95.600000,68.600000C85.800000,70.700000,81.600000,80.300000,81.800000,86.200000C82,89.700000,83.600000,90,84.100000,90C85.200000,90,86.200000,88.900000,86.400000,87.300000C86.500000,86.800000,88.100000,74,97.800000,75C101.700000,75.400000,105.100000,79,107.200000,84.900000C109.900000,92.400000,109.800000,103.300000,104.400000,108.700000C104,109.100000,103.600000,109.500000,103.300000,109.800000C98,107.800000,92.900000,107.700000,90,109.500000C88.400000,110.500000,87.500000,112,87.300000,113.900000C87.200000,115.400000,88.200000,117.100000,89.800000,118.300000C91.300000,119.300000,95.600000,121.400000,103.200000,118C107.300000,123.100000,108.900000,129.100000,108.100000,136.200000C107.100000,146,103.200000,152.600000,97.600000,154.500000C93.300000,156,88.400000,154.400000,84.500000,150.300000C83.300000,149,81,148.200000,79.800000,149C78.700000,149.800000,78.800000,151.500000,80.100000,154C82.100000,157.800000,88,163.500000,94.900000,164.100000C95.600000,164.200000,96.400000,164.200000,97.100000,164.200000C109.300000,164.200000,119.100000,153.600000,120.800000,138.100000L120.800000,138.100000C121.700000,129.500000,117.600000,119.200000,111.200000,114.100000C111,113.900000,110.800000,113.800000,110.600000,113.700000C111.200000,113.300000,111.900000,112.700000,112.500000,112.200000C118.400000,107.300000,121.400000,100.300000,121.200000,92.300000ZM96.900000,113.700000C94.500000,114.600000,92.700000,114.500000,92.100000,114.100000C91.900000,114,91.900000,113.900000,92,113.900000C92,113.900000,92,113.800000,92.200000,113.700000C92.600000,113.500000,93.200000,113.400000,94,113.400000C94.800000,113.300000,95.800000,113.500000,96.900000,113.700000Z" fill="rgb(255,255,255)" stroke="none" stroke-width="1"/></g></g><g id="enwjaisx5y244_ts" transform="translate(153.091026,115.949997) scale(0,0)"><g id="enwjaisx5y244" transform="translate(-153.091026,-115.949997)"><path id="enwjaisx5y245" d="M171,74.400000C166.800000,70,161.500000,67.700000,155.300000,67.700000C145.500000,67.700000,137.400000,73.200000,131.800000,83.600000C127.100000,92.300000,124.500000,104.200000,124.500000,116.400000C124.500000,138.400000,132.100000,164.200000,153.400000,164.200000C165.900000,164.200000,179.900000,151.400000,181.600000,115.400000L181.600000,115.400000C182.300000,96.900000,178.500000,82.300000,171,74.400000ZM154.600000,155.500000C152.700000,155.500000,150.900000,154.600000,149.200000,152.800000C144.300000,147.600000,139.500000,133.600000,140.900000,109.700000C142.800000,77.100000,154.400000,75.500000,156.700000,75.500000C164.400000,75.500000,172.300000,89.100000,172.300000,112C172.300000,136.300000,164.500000,155.500000,154.600000,155.500000Z" fill="rgb(255,255,255)" stroke="none" stroke-width="1"/></g></g><g id="enwjaisx5y246_ts" transform="translate(127.314262,179.732765) scale(0,0)"><g id="enwjaisx5y246" transform="translate(-127.314262,-179.732765)"><g id="enwjaisx5y247"><path id="enwjaisx5y248" d="M116.400000,187C115.200000,187,114,186.300000,113.500000,185.300000C112.600000,183.700000,112.800000,181,112.800000,178.600000L112.800000,177.700000C110.300000,178.800000,107.800000,180.600000,106.500000,183C106,184.200000,105.400000,185.600000,104.800000,187C104.300000,188.300000,101.500000,187.600000,102,186.300000C103.900000,181.600000,106.100000,175.400000,107.600000,171.900000C108.600000,169.700000,109.500000,166.900000,110.700000,164.200000C111.100000,163.400000,114.700000,164.800000,114.800000,166.100000C114.900000,169.200000,114.800000,172.900000,114.700000,175.800000C115.600000,175.600000,117.300000,175.400000,118,176C119.500000,177.100000,118.600000,179.600000,117.900000,180.100000C117,180.800000,116.300000,180.500000,116,180.200000C115.400000,179.500000,117.500000,177.900000,117,177.400000C116.600000,176.900000,115.600000,176.900000,114.600000,177.100000C114.500000,178.700000,114.500000,179.900000,114.500000,180.400000C114.600000,181.900000,114.300000,183.600000,115,184.700000C115.400000,185.400000,116.100000,185.200000,116.700000,185C119,184.300000,119.600000,187,116.400000,187ZM112.800000,176.500000C112.900000,173.400000,113.100000,170,113,167.400000C111.900000,170.200000,109.200000,176.100000,108.100000,179L107.300000,180.900000C108.700000,179.100000,110.600000,177.500000,112.800000,176.500000Z" fill="rgb(255,255,255)" stroke="none" stroke-width="1"/><path id="enwjaisx5y249" d="M130.900000,181.500000C130.100000,185.600000,128.700000,186.800000,127.300000,186.800000C126.200000,186.800000,125.200000,185.600000,125.300000,183.100000C125.400000,180.500000,125.900000,172.500000,123.400000,180C123.100000,181,122.900000,182.100000,122.900000,183C122.800000,184.700000,122.700000,185.900000,122.700000,186C122.500000,188.100000,120.300000,188.500000,120.200000,186.300000C120.200000,185.500000,120.100000,183.400000,120.100000,181.900000C120.100000,180.900000,120.200000,177.200000,120.300000,175.700000C120.400000,174.800000,121.900000,174.700000,122.800000,175.700000C123,175.900000,123.100000,177.400000,123,179.200000C123.600000,177.600000,124.500000,176,125.800000,176C127,176,128,177.800000,128,181.300000C128,183,127.300000,189.100000,129.700000,183.500000C129.900000,183,130.100000,182.300000,130.300000,181.400000C130.400000,180.200000,131.100000,180.500000,130.900000,181.500000ZM122,173.100000C123.800000,171.600000,124.700000,173.200000,125.500000,173.300000L125.500000,173.300000C125.500000,173.300000,125.500000,173.300000,125.500000,173.300000C126,173.300000,126.300000,172.700000,126.300000,172.800000C126.500000,172.600000,126.700000,172.500000,127,172.700000C127.200000,172.800000,127.300000,173.100000,127.100000,173.400000C127.100000,173.400000,126.500000,174.200000,125.500000,174.200000L125.400000,174.200000L125.400000,174.200000L125.400000,174.200000C124.800000,174.200000,124.300000,173.700000,123.900000,173.500000C123.600000,173.400000,123.500000,173.400000,123.400000,173.400000C123.300000,173.400000,123,173.400000,122.500000,173.800000C121.900000,174.200000,121.400000,173.700000,122,173.100000Z" fill="rgb(255,255,255)" stroke="none" stroke-width="1"/><path id="enwjaisx5y250" d="M152,180C150.900000,180.100000,148.900000,180.800000,146.600000,182.200000C147.200000,184,148.200000,186.200000,148.800000,187.600000C150.300000,191.100000,148.400000,195.500000,143.900000,195.500000C140.300000,195.500000,136.200000,190.400000,141.200000,185.400000C142.100000,184.500000,143.100000,183.700000,144.100000,183C143.300000,181.600000,142.800000,180.800000,142.500000,179.300000C142,179.800000,141,180.100000,140.100000,180.200000C139.800000,180.300000,139.600000,180.300000,139.300000,180.300000C139.200000,180.900000,139.100000,181.500000,139,182.100000C138.400000,184.700000,137,186.800000,134.600000,186.700000C130.100000,186.500000,130,181.800000,130.800000,176.700000C130.900000,175.900000,131.500000,175.500000,132.100000,175.500000C132.100000,173.700000,133.300000,172,135,172C137.100000,172,139.700000,174.300000,139.300000,179.400000C139.500000,179.400000,139.800000,179.300000,140,179.300000C140.300000,179.200000,140.600000,179.200000,140.800000,179.100000C142.300000,178.600000,142.300000,177.700000,142.500000,176C142.600000,175.200000,143.200000,174.900000,143.900000,174.600000C145,174.200000,147,174.600000,146.400000,175.200000C145.300000,176.500000,145.600000,178.800000,146.100000,180.500000C146.200000,180.800000,146.300000,181,146.400000,181.400000C148.900000,180,151.100000,179.200000,152.100000,179.200000C152.900000,179.300000,152.900000,179.900000,152,180ZM137.600000,180.500000C137.500000,180.500000,137.300000,180.500000,137.200000,180.500000C135,180.200000,133.600000,179.300000,132.800000,178.200000C132.600000,181,132.600000,183.500000,133.200000,184.900000C133.700000,185.900000,135.900000,188,137.300000,182C137.400000,181.400000,137.500000,180.900000,137.600000,180.500000ZM136.300000,174C133.500000,171.200000,130.700000,178.500000,137.200000,179.600000C137.400000,179.600000,137.500000,179.700000,137.700000,179.700000C137.900000,176.900000,137.200000,174.900000,136.300000,174ZM146.500000,187.400000C145.800000,186,145.100000,184.800000,144.400000,183.700000C143.500000,184.400000,142.600000,185.200000,141.700000,186.100000C137.100000,190.800000,142.400000,197.200000,146,193.500000C147.400000,192.200000,147.700000,189.700000,146.500000,187.400000Z" fill="rgb(255,255,255)" stroke="none" stroke-width="1"/></g></g></g></svg>